Coordinates
version=1
nRows=14
nColumns=36
inDegrees=yes

Units are S.I. units (second, meters, Newtons, ...)
If the header above contains a line with 'inDegrees', this indicates whether rotational values are in degrees (yes) or radians (no).

endheader
time	pelvis_tilt	pelvis_list	pelvis_rotation	pelvis_tx	pelvis_ty	pelvis_tz	hip_flexion_r	hip_adduction_r	hip_rotation_r	knee_angle_r	knee_angle_r_beta	ankle_angle_r	subtalar_angle_r	mtp_angle_r	hip_flexion_l	hip_adduction_l	hip_rotation_l	knee_angle_l	knee_angle_l_beta	ankle_angle_l	subtalar_angle_l	mtp_angle_l	lumbar_extension	lumbar_bending	lumbar_rotation	arm_flex_r	arm_add_r	arm_rot_r	elbow_flex_r	pro_sup_r	arm_flex_l	arm_add_l	arm_rot_l	elbow_flex_l	pro_sup_l
      1.55000000	    -18.04056953	      0.59910158	      1.09277988	     -0.51818252	      1.15479701	     -0.58126858	     33.71385440	     -7.28676535	     -9.66915540	     14.27470686	      0.24914063	    -26.59257736	     -1.92371220	     -6.28320550	     37.81322082	     -7.05706450	     -4.91780592	     22.37703647	      0.39055296	    -27.08375038	     -2.77534130	     -6.28320550	    -11.15970081	      1.14443754	     -1.65021939	    -22.74504352	    -11.09130236	    -18.17816663	     40.44538840	    108.22791916	    -17.53884453	    -13.26986395	     -5.36821751	     33.97892717	    110.40748028
      1.56000000	    -18.27781892	      0.62695941	      1.20982585	     -0.50828234	      1.13550248	     -0.58162699	     34.50606017	     -7.50632360	    -10.13886563	     12.90993690	      0.22532091	    -26.60050900	     -1.38077522	     -6.28285075	     38.59229997	     -7.17107092	     -5.63964316	     20.74654904	      0.36209559	    -27.55671460	     -2.32988148	     -6.28285075	    -11.38334168	      1.14943839	     -1.50752153	    -24.44178628	    -10.46095599	    -18.74358478	     38.60168954	    108.39960191	    -18.93131537	    -12.85155950	     -5.66627719	     32.67454820	    110.69191466
      1.57000000	    -18.38253595	      0.64976299	      1.27800461	     -0.49836604	      1.11533283	     -0.58185222	     35.35604486	     -7.73570973	    -10.80923580	     12.13424908	      0.21178260	    -26.29589930	     -0.94798134	     -6.29321777	     39.33079047	     -7.36137087	     -6.51956014	     19.51146443	      0.34053930	    -27.82678264	     -2.03879315	     -6.29321777	    -11.73329408	      1.18030265	     -1.28033261	    -25.98085882	     -9.72948045	    -19.45255098	     36.63384246	    108.26554236	    -20.09667283	    -12.39858922	     -6.25299795	     31.23328131	    110.51498580
      1.58000000	    -18.42914959	      0.63979674	      1.21444317	     -0.48842004	      1.09421405	     -0.58178026	     36.26604526	     -7.84530281	    -11.19051258	     11.77147466	      0.20545099	    -26.30044403	     -0.59969660	     -6.30704915	     40.09209552	     -7.70266086	     -7.41959941	     18.69210139	      0.32623871	    -28.32872170	     -1.83276232	     -6.30704915	    -12.13475690	      1.24843732	     -0.91437518	    -27.46655324	     -8.96239647	    -20.12176401	     34.87436529	    108.06908221	    -21.15216133	    -11.93871576	     -6.96755327	     29.89618783	    110.09736816
      1.59000000	    -18.44120145	      0.57111527	      1.10923892	     -0.47846350	      1.07215109	     -0.58169873	     37.21038199	     -7.88699343	    -11.31213840	     11.79385156	      0.20584154	    -26.58525172	     -0.31990410	     -6.32487520	     40.93965774	     -8.13070606	     -8.14256339	     18.34893515	      0.32024933	    -28.85530347	     -1.83797277	     -6.32487520	    -12.50842197	      1.32752612	     -0.51714645	    -28.79398973	     -8.17966190	    -20.81484556	     33.08246554	    107.78037725	    -22.08593419	    -11.38505395	     -7.57188789	     28.53558935	    109.58617621
      1.60000000	    -18.36501936	      0.43607334	      1.08400661	     -0.46858288	      1.04916865	     -0.58197462	     38.11394953	     -7.95552846	    -11.33707488	     12.20995543	      0.21310392	    -27.00898517	     -0.17127704	     -6.35001408	     41.79803867	     -8.50232925	     -8.34246152	     18.38666637	      0.32090787	    -29.40685114	     -2.14793468	     -6.35001408	    -12.92155846	      1.48146161	     -0.19533343	    -29.94478561	     -7.41326301	    -21.40911561	     31.29146262	    107.26560740	    -22.85754016	    -10.74334713	     -7.94492537	     27.14897297	    108.94926324
      1.61000000	    -18.20179456	      0.34986232	      1.12863462	     -0.45891317	      1.02510247	     -0.58243573	     39.04130525	     -8.12961943	    -11.08494224	     13.16216075	      0.22972304	    -27.09541575	     -0.51094806	     -6.40962497	     42.62678847	     -8.68842908	     -7.94261960	     18.80167192	      0.32815108	    -29.94257276	     -3.38953735	     -6.40962497	    -13.39878749	      1.62898290	      0.03860925	    -30.95257464	     -6.62848753	    -21.90470811	     29.58032426	    106.56300276	    -23.41533767	    -10.15399049	     -8.12933448	     25.63883059	    108.17951089
      1.62000000	    -17.94917049	      0.31764612	      1.12025286	     -0.44925908	      0.99990658	     -0.58276886	     39.98432653	     -8.33797102	    -10.54343517	     14.53611758	      0.25370311	    -27.27300906	     -0.69227730	     -6.45855366	     43.45326908	     -8.92155471	     -7.52744567	     19.74724876	      0.34465451	    -30.05881049	     -4.00484889	     -6.45855366	    -13.94748212	      1.74637013	      0.37631862	    -32.02155732	     -5.84551744	    -22.08643821	     28.22021447	    105.85578685	    -23.94558071	     -9.61341797	     -8.66507021	     24.65528406	    107.36792864
      1.63000000	    -17.61481205	      0.34621617	      1.03964864	     -0.43940058	      0.97373717	     -0.58293245	     40.93468248	     -8.56120548	     -9.82803142	     16.04789282	      0.28008857	    -28.44827958	     -0.54041971	     -6.49127963	     44.24301504	     -9.21208079	     -7.18560459	     20.85884390	      0.36405550	    -31.04950625	     -3.98516872	     -6.49127963	    -14.52612011	      1.78986256	      0.82632380	    -33.09714349	     -5.01431871	    -22.16311661	     27.09961632	    105.24710631	    -24.45426973	     -9.16103550	     -9.20425778	     24.05887222	    106.67840805
      1.64000000	    -17.44292245	      0.32212263	      0.87359844	     -0.42962099	      0.94655044	     -0.58288663	     42.17898817	     -8.56814607	     -8.69694557	     18.02121277	      0.31452950	    -29.53432361	     -1.85613643	     -6.54710745	     45.20071984	     -9.49589776	     -6.41295373	     22.13553673	      0.38633800	    -33.13218703	     -5.09488266	     -6.54710745	    -14.82223235	      1.82142106	      1.16395586	    -33.79316032	     -4.36576556	    -22.05928290	     25.46061870	    104.83851541	    -24.89854210	     -8.57929721	    -10.34028896	     23.30911457	    106.24114746
      1.65000000	    -17.32753844	      0.17811228	      0.72062109	     -0.42027044	      0.91845632	     -0.58267361	     43.68815654	     -8.43724963	     -7.89166841	     22.03230889	      0.38453633	    -24.48875415	     -4.13183308	     -6.63476444	     46.38173468	     -9.86573721	     -5.13085260	     25.20946224	      0.43998812	    -30.38491475	     -6.03556809	     -6.63476444	    -15.03304718	      1.99832702	      1.56459014	    -34.63926065	     -3.63039539	    -22.14477366	     24.79002674	    102.62042058	    -25.37078153	     -8.05412928	    -11.24997695	     23.38589492	    103.90459929
      1.66000000	    -17.18453303	      0.24341711	      0.66872358	     -0.41182340	      0.88953515	     -0.58247767	     45.51380757	     -8.48279059	     -7.01021095	     28.89438979	      0.50430224	     -9.67452186	     -6.77147071	     -6.88653061	     47.96258423	     -9.94142374	     -3.39353929	     31.37308507	      0.54756363	    -19.03648792	     -7.94405521	     -6.88653061	    -15.38813621	      1.81437365	      1.39250018	    -34.62806718	     -3.42070756	    -20.42422803	     22.58047077	    103.39319452	    -25.94119019	     -7.30488169	    -14.59834399	     23.71347588	    105.73830828
      1.67000000	    -17.14012924	      0.23273867	      0.43671358	     -0.40489706	      0.86058633	     -0.58220936	     48.12752835	     -8.25093651	     -5.70019113	     37.14896496	      0.64837175	      6.34464542	     -8.74151292	     -7.01700748	     50.26382051	    -10.22559974	     -1.89916556	     39.32006543	      0.68626460	     -3.37546895	     -8.46609991	     -7.01700748	    -15.85085627	      1.79892586	      1.74266123	    -34.76797682	     -2.64847953	    -21.50671074	     22.15865867	     99.19402102	    -25.83244346	     -6.82399187	    -15.81829277	     24.12301218	    101.66305889
      1.68000000	    -18.01770369	      0.17184195	     -0.13133692	     -0.40125913	      0.83261364	     -0.58176907	     53.29481645	     -7.54535553	     -3.40774171	     46.16198345	      0.80567860	     13.34748011	    -12.49051080	     -7.06659292	     54.13840805	    -10.50692947	     -0.59028974	     46.68950530	      0.81488559	      5.69294637	    -11.85651762	     -7.06659292	    -15.72374798	      1.77437663	      2.39840040	    -34.40618739	     -2.16987627	    -21.99282947	     21.93918304	     97.07211873	    -25.15433919	     -6.41119887	    -16.47727405	     24.40802929	     99.42483097
